<svg xmlns="http://www.w3.org/2000/svg" width="760" height="192" viewBox="-4.40 -130.32 685.12 173.12" role="img" aria-label="Questline">
  <defs>
    <linearGradient id="gold" x1="0" y1="0" x2="0" y2="1">
      <stop offset="0%" stop-color="#fdf1b6"/><stop offset="48%" stop-color="#dab24c"/>
      <stop offset="100%" stop-color="#8a641d"/>
    </linearGradient>
    <filter id="engrave" x="-6%" y="-12%" width="112%" height="130%">
      <feDropShadow dx="0" dy="1.1" stdDeviation="0.7" flood-color="#3a2708" flood-opacity="0.30"/>
    </filter>
  </defs>
  <path d="M101.44 -57.92Q101.44 -68.32000000000001 98.88 -76.56Q96.32000000000001 -84.8 91.76 -90.56Q87.2 -96.32000000000001 80.72 -99.44Q74.24 -102.56 66.56 -102.56Q58.4 -102.56 51.92 -98.64Q45.44 -94.72 40.96 -88.0Q36.480000000000004 -81.28 34.160000000000004 -72.24000000000001Q31.84 -63.2 31.84 -52.96Q31.84 -40.160000000000004 34.56 -31.36Q37.28 -22.56 41.92 -17.2Q46.56 -11.84 52.64 -9.44Q58.72 -7.04 65.44 -7.04Q72.64 -7.04 79.2 -10.08Q85.76 -13.120000000000001 90.64 -19.36Q95.52 -25.6 98.47999999999999 -35.2Q101.44 -44.800000000000004 101.44 -57.92ZM67.04 -111.68Q79.84 -111.68 90.88 -108.16Q101.92 -104.64 110.08000000000001 -97.6Q118.24000000000001 -90.56 122.96000000000001 -79.76Q127.68 -68.96000000000001 127.68 -54.56Q127.68 -45.12 124.88 -36.64Q122.08 -28.16 116.8 -21.12Q111.52 -14.08 104.0 -8.72Q96.48 -3.36 86.88 0.0Q92.8 3.2 98.72 6.800000000000001Q104.64 10.4 110.08 13.68Q115.52 16.96 120.32 19.68Q125.12 22.400000000000002 128.8 24.16Q123.2 24.96 117.92 27.200000000000003Q112.64 29.44 106.24000000000001 32.8Q100.8 28.48 96.47999999999999 25.200000000000003Q92.16 21.92 87.68 18.560000000000002Q83.2 15.200000000000001 77.76 11.440000000000001Q72.32000000000001 7.68 64.48 2.4Q52.800000000000004 2.4 42.08 -0.8Q31.36 -4.0 23.28 -10.96Q15.200000000000001 -17.92 10.4 -28.720000000000002Q5.6000000000000005 -39.52 5.6000000000000005 -54.4Q5.6000000000000005 -66.24 10.0 -76.64Q14.4 -87.04 22.400000000000002 -94.88Q30.400000000000002 -102.72 41.760000000000005 -107.2Q53.120000000000005 -111.68 67.04 -111.68ZM191.04 -11.200000000000001Q186.56 -4.48 180.56 -1.0400000000000003Q174.56 2.4 166.88 2.4Q154.88 2.4 148.4 -4.32Q141.92000000000002 -11.040000000000001 141.92000000000002 -26.560000000000002Q141.92000000000002 -34.72 142.24 -40.96Q142.56 -47.2 142.56 -53.44Q142.56 -58.56 142.32 -64.56Q142.08 -70.56 141.76 -76.64Q143.84 -76.32000000000001 147.04000000000002 -76.08000000000001Q150.24 -75.84 153.76 -75.84Q157.28 -75.84 160.48000000000002 -76.08000000000001Q163.68 -76.32000000000001 165.76 -76.64Q164.64 -68.0 164.32 -56.64Q164.0 -45.28 164.0 -30.72Q164.0 -20.64 167.44 -15.920000000000002Q170.88 -11.200000000000001 177.12 -11.200000000000001Q184.32 -11.200000000000001 187.68 -17.44Q191.04 -23.68 191.04 -34.72V-41.12Q191.04 -50.88 190.8 -59.44Q190.56 -68.0 189.76 -76.64Q194.24 -75.84 201.76 -75.84Q205.44 -75.84 208.48 -76.08000000000001Q211.51999999999998 -76.32000000000001 213.76 -76.64Q212.96 -68.0 212.72000000000003 -59.44Q212.48000000000002 -50.88 212.48000000000002 -41.12V-34.72Q212.48000000000002 -24.96 212.72000000000003 -16.32Q212.96 -7.68 213.76 0.32Q210.88 0.0 208.07999999999998 0.0Q205.28 0.0 202.4 0.0Q199.51999999999998 0.0 196.72 0.0Q193.92000000000002 0.0 190.72 0.32L191.36 -11.200000000000001ZM251.20000000000002 -37.92Q251.20000000000002 -31.52 252.48000000000002 -25.92Q253.76000000000002 -20.32 256.40000000000003 -16.240000000000002Q259.04 -12.16 263.12 -9.84Q267.2 -7.5200000000000005 272.64 -7.5200000000000005Q283.68 -7.5200000000000005 292.32 -14.72L294.24 -13.280000000000001L290.72 -4.32Q286.72 -1.28 281.12 0.5599999999999999Q275.52 2.4 266.40000000000003 2.4Q258.56 2.4 251.52 0.24Q244.48000000000002 -1.92 239.12 -6.88Q233.76000000000002 -11.84 230.64000000000001 -19.439999999999998Q227.52 -27.04 227.52 -37.6Q227.52 -48.0 230.32 -55.68Q233.12 -63.36 238.08 -68.48Q243.04000000000002 -73.60000000000001 249.84 -76.16Q256.64 -78.72 264.64 -78.72Q280.48 -78.72 288.88 -69.44Q297.28000000000003 -60.160000000000004 297.28000000000003 -43.2V-39.84Q297.28000000000003 -38.4 297.12 -37.92ZM275.84000000000003 -45.12Q275.52 -57.120000000000005 272.88 -64.32Q270.24 -71.52 264.0 -71.52Q260.48 -71.52 258.08000000000004 -69.12Q255.68 -66.72 254.24 -62.96Q252.8 -59.2 252.08 -54.480000000000004Q251.36 -49.76 251.20000000000002 -45.12ZM313.28000000000003 -19.36Q314.24 -16.8 315.76 -14.48Q317.28000000000003 -12.16 319.52 -10.32Q321.76 -8.48 324.88 -7.36Q328.0 -6.24 332.16 -6.24Q337.76 -6.24 340.8 -9.120000000000001Q343.84000000000003 -12.0 343.84000000000003 -15.36Q343.84000000000003 -19.04 341.12 -21.28Q338.40000000000003 -23.52 334.32000000000005 -25.36Q330.24 -27.2 325.44 -29.119999999999997Q320.64 -31.04 316.56 -34.0Q312.48 -36.96 309.76 -41.44Q307.04 -45.92 307.04 -52.96Q307.04 -59.68 309.52 -64.56Q312.0 -69.44 316.0 -72.56Q320.0 -75.68 325.03999999999996 -77.2Q330.08 -78.72 335.04 -78.72Q341.76 -78.72 346.96000000000004 -76.8Q352.16 -74.88 357.6 -71.2Q356.16 -68.0 355.20000000000005 -64.32Q354.24 -60.64 353.76 -57.120000000000005H349.28000000000003Q348.8 -59.04 347.68 -61.36Q346.56 -63.68 344.64 -65.76Q342.72 -67.84 340.0 -69.2Q337.28000000000003 -70.56 333.44 -70.56Q328.64 -70.56 325.36 -68.0Q322.08 -65.44 322.08 -61.28Q322.08 -57.44 324.88 -55.120000000000005Q327.68 -52.800000000000004 331.84000000000003 -51.040000000000006Q336.0 -49.28 340.96000000000004 -47.519999999999996Q345.92 -45.76 350.08000000000004 -42.96Q354.24 -40.160000000000004 357.04 -35.68Q359.84000000000003 -31.2 359.84000000000003 -24.16Q359.84000000000003 -17.12 357.28000000000003 -12.08Q354.72 -7.04 350.40000000000003 -3.76Q346.08000000000004 -0.48 340.56000000000006 0.96Q335.04 2.4 328.96000000000004 2.4Q321.76 2.4 316.0 0.31999999999999995Q310.24 -1.76 306.88 -4.0Q308.8 -11.68 309.28000000000003 -19.36H313.28000000000003ZM415.04 -75.84Q414.56 -73.44 414.56 -71.52Q414.56 -69.44 415.04 -67.52L400.96000000000004 -67.84Q400.64000000000004 -64.16 400.40000000000003 -59.36Q400.16 -54.56 400.08000000000004 -49.6Q400.0 -44.64 399.92 -40.0Q399.84000000000003 -35.36 399.84000000000003 -32.160000000000004Q399.84000000000003 -23.84 400.24 -18.72Q400.64000000000004 -13.6 401.6 -10.879999999999999Q402.56 -8.16 404.32000000000005 -7.2Q406.08000000000004 -6.24 408.8 -6.24Q411.84000000000003 -6.24 413.28000000000003 -6.640000000000001Q414.72 -7.04 416.16 -7.84V-1.28Q412.96000000000004 0.16 408.16 1.28Q403.36 2.4 398.72 2.4Q378.40000000000003 2.4 378.40000000000003 -21.92Q378.40000000000003 -26.560000000000002 378.56000000000006 -32.400000000000006Q378.72 -38.24 378.96000000000004 -44.400000000000006Q379.20000000000005 -50.56 379.36 -56.56Q379.52000000000004 -62.56 379.52000000000004 -67.68L368.32 -67.52Q368.8 -69.44 368.8 -71.52Q368.8 -73.44 368.32 -75.84L379.52000000000004 -75.36Q379.52000000000004 -80.32000000000001 379.36 -84.64000000000001Q379.20000000000005 -88.96000000000001 378.88 -95.04Q384.48 -97.28 389.92 -99.76Q395.36 -102.24000000000001 400.8 -104.96000000000001L402.40000000000003 -103.84Q402.08000000000004 -101.28 401.84000000000003 -97.84Q401.6 -94.4 401.36 -90.64Q401.12 -86.88 401.04 -82.96000000000001Q400.96000000000004 -79.04 400.96000000000004 -75.52L415.04 -75.84ZM429.28 -64.96000000000001Q429.28 -80.64 428.96 -93.75999999999999Q428.64 -106.88 428.0 -120.32000000000001Q430.08 -120.0 433.28 -119.75999999999999Q436.48 -119.52 440.0 -119.52Q443.52 -119.52 446.72 -119.75999999999999Q449.92 -120.0 452.0 -120.32000000000001Q451.36 -106.88 451.03999999999996 -93.75999999999999Q450.71999999999997 -80.64 450.71999999999997 -64.96000000000001V-54.56Q450.71999999999997 -38.88 451.03999999999996 -25.76Q451.36 -12.64 452.0 0.32Q449.92 0.0 446.72 0.0Q443.52 0.0 440.0 0.0Q436.48 0.0 433.28 0.0Q430.08 0.0 428.0 0.32Q428.64 -12.64 428.96 -25.76Q429.28 -38.88 429.28 -54.56V-64.96000000000001ZM471.84000000000003 -106.88Q471.84000000000003 -112.16 475.52 -115.84Q479.2 -119.52 484.48 -119.52Q489.76 -119.52 493.44 -115.84Q497.12 -112.16 497.12 -106.88Q497.12 -101.60000000000001 493.44 -97.92Q489.76 -94.24 484.48 -94.24Q479.2 -94.24 475.52 -97.92Q471.84000000000003 -101.60000000000001 471.84000000000003 -106.88ZM473.76 -41.12Q473.76 -50.88 473.52 -59.44Q473.28000000000003 -68.0 472.48 -76.64Q474.72 -76.32000000000001 477.76 -76.08000000000001Q480.8 -75.84 484.48 -75.84Q492.0 -75.84 496.48 -76.64Q495.68 -68.0 495.44 -59.44Q495.2 -50.88 495.2 -41.12V-34.72Q495.2 -24.96 495.44 -16.32Q495.68 -7.68 496.48 0.32Q494.40000000000003 0.0 491.28000000000003 0.0Q488.16 0.0 484.48 0.0Q480.8 0.0 477.76 0.0Q474.72 0.0 472.48 0.32Q473.28000000000003 -7.68 473.52 -16.32Q473.76 -24.96 473.76 -34.72ZM537.9200000000001 -64.64Q542.4 -71.36 548.4 -75.03999999999999Q554.4 -78.72 562.08 -78.72Q574.08 -78.72 580.5600000000001 -71.75999999999999Q587.0400000000001 -64.8 587.0400000000001 -49.28Q587.0400000000001 -41.12 586.72 -34.879999999999995Q586.4000000000001 -28.64 586.4000000000001 -22.400000000000002Q586.4000000000001 -17.28 586.6400000000001 -11.280000000000001Q586.88 -5.28 587.2 0.32Q585.12 0.0 581.9200000000001 0.0Q578.72 0.0 575.2 0.0Q571.6800000000001 0.0 568.48 0.0Q565.28 0.0 563.2 0.32Q564.32 -8.0 564.6400000000001 -19.28Q564.96 -30.560000000000002 564.96 -45.12Q564.96 -55.2 561.52 -59.92Q558.08 -64.64 551.84 -64.64Q544.64 -64.64 541.28 -58.400000000000006Q537.9200000000001 -52.160000000000004 537.9200000000001 -41.12V-34.72Q537.9200000000001 -24.96 538.1600000000001 -16.32Q538.4 -7.68 539.2 0.32Q537.12 0.0 534.0 0.0Q530.88 0.0 527.2 0.0Q523.52 0.0 520.48 0.0Q517.44 0.0 515.2 0.32Q516.0 -7.68 516.24 -16.32Q516.48 -24.96 516.48 -34.72V-41.12Q516.48 -50.88 516.24 -59.44Q516.0 -68.0 515.2 -76.64Q518.08 -76.32000000000001 520.8800000000001 -76.08000000000001Q523.6800000000001 -75.84 526.5600000000001 -75.84Q529.44 -75.84 532.24 -76.08000000000001Q535.0400000000001 -76.32000000000001 538.24 -76.64L537.6 -64.64ZM624.6400000000001 -37.92Q624.6400000000001 -31.52 625.9200000000001 -25.92Q627.2 -20.32 629.84 -16.240000000000002Q632.48 -12.16 636.5600000000001 -9.84Q640.6400000000001 -7.5200000000000005 646.08 -7.5200000000000005Q657.1200000000001 -7.5200000000000005 665.7600000000001 -14.72L667.6800000000001 -13.280000000000001L664.1600000000001 -4.32Q660.1600000000001 -1.28 654.5600000000001 0.5599999999999999Q648.96 2.4 639.84 2.4Q632.0000000000001 2.4 624.96 0.24Q617.9200000000001 -1.92 612.5600000000001 -6.88Q607.2 -11.84 604.08 -19.439999999999998Q600.96 -27.04 600.96 -37.6Q600.96 -48.0 603.76 -55.68Q606.5600000000001 -63.36 611.52 -68.48Q616.48 -73.60000000000001 623.28 -76.16Q630.08 -78.72 638.08 -78.72Q653.9200000000001 -78.72 662.32 -69.44Q670.72 -60.160000000000004 670.72 -43.2V-39.84Q670.72 -38.4 670.5600000000001 -37.92ZM649.2800000000001 -45.12Q648.96 -57.120000000000005 646.32 -64.32Q643.6800000000001 -71.52 637.44 -71.52Q633.9200000000001 -71.52 631.5200000000001 -69.12Q629.1200000000001 -66.72 627.6800000000001 -62.96Q626.24 -59.2 625.52 -54.480000000000004Q624.8000000000001 -49.76 624.6400000000001 -45.12Z" fill="url(#gold)" stroke="#8a641d" stroke-width="0.9" stroke-linejoin="round" filter="url(#engrave)"/>
</svg>
